# xmcd
#
# Track frame offsets: 
#        150
#        12627
#        36412
#        48457
#        65987
#        95062
#        114485
#        134087
#        150625
#        163525
#        186137
#
# Disc length: 2667 seconds
#
# Revision: 0
# Processed by: cddbd v1.5.2PL0 Copyright (c) Steve Scherf et al.
# Submitted via: ExactAudioCopyFreeDBPlugin 1.0
#
DISCID=a30a690b
DTITLE=Kris Lager Band - The Mighty Quinn
DYEAR=2008
DGENRE=Blues
TTITLE0=Time Will Do
TTITLE1=You Better Run
TTITLE2=If I Get Lonely
TTITLE3=Shackles
TTITLE4=Let It Go
TTITLE5=Comeback Alone
TTITLE6=Mean Old World
TTITLE7=Hold On
TTITLE8=If That Sun Don't Shine
TTITLE9=Sprinkle My Ashes
TTITLE10=You Can't Save Me
EXTD=
EXTT0=
EXTT1=
EXTT2=
EXTT3=
EXTT4=
EXTT5=
EXTT6=
EXTT7=
EXTT8=
EXTT9=
EXTT10=
PLAYORDER=
